<?xml version="1.0" encoding="utf-8"?>
<!-- Generator: Adobe Illustrator 24.2.3, SVG Export Plug-In . SVG Version: 6.00 Build 0)  -->
<svg version="1.1" id="Layer_1" xmlns="http://www.w3.org/2000/svg" xmlns:xlink="http://www.w3.org/1999/xlink" x="0px" y="0px"
	 width="72px" height="72px" viewBox="0 0 72 72" style="enable-background:new 0 0 72 72;" xml:space="preserve">
<style type="text/css">
	.st0{fill:#EEF4FF;}
	.st1{fill:#D9E6FC;}
	.st2{fill:#364C6B;}
	.st3{fill:#243C60;}
	.st4{fill:#FFE278;}
	.st5{fill:#FFB454;}
	.st6{fill:#425796;}
	.st7{fill:#283758;}
</style>
<g>
	<path class="st0" d="M70.4,15.1v44.3c0,3.3-2.7,6-6,6H8.1c-3.3,0-6-2.7-6-6V15.1c0-3.3,2.7-6,6-6h56.3
		C67.7,9.1,70.4,11.8,70.4,15.1z"/>
	<path class="st1" d="M70.4,15.1v44.3c0,3.3-2.7,6-6,6H36.2V9.1h28.2C67.7,9.1,70.4,11.8,70.4,15.1z"/>
	<path class="st2" d="M70.4,15.1V25c0,1.1-0.9,2-2,2H4.1c-1.1,0-2-0.9-2-2v-9.9c0-3.3,2.7-6,6-6h56.3C67.7,9.1,70.4,11.8,70.4,15.1z
		"/>
	<path class="st3" d="M70.4,15.1V25c0,1.1-0.9,2-2,2H36.2V9.1h28.2C67.7,9.1,70.4,11.8,70.4,15.1z"/>
	<path class="st4" d="M14.9,18.4c-1.1,0-2-0.9-2-2V5.8c0-1.1,0.9-2,2-2s2,0.9,2,2v10.7C16.9,17.5,16,18.4,14.9,18.4z"/>
	<path class="st4" d="M38.3,5.8v10.7c0,1.1-0.9,2-2,2s-2-0.9-2-2V5.8c0-1.1,0.9-2,2-2S38.3,4.7,38.3,5.8z"/>
	<path class="st5" d="M38.3,5.8v10.7c0,1.1-0.9,2-2,2V3.8C37.4,3.8,38.3,4.7,38.3,5.8z"/>
	<path class="st5" d="M57.6,18.4c-1.1,0-2-0.9-2-2V5.8c0-1.1,0.9-2,2-2c1.1,0,2,0.9,2,2v10.7C59.6,17.5,58.7,18.4,57.6,18.4z"/>
	<g>
		<path class="st6" d="M21.3,37.7H17c-1.1,0-2-0.9-2-2s0.9-2,2-2h4.3c1.1,0,2,0.9,2,2S22.4,37.7,21.3,37.7z"/>
		<path class="st6" d="M21.3,46.2H17c-1.1,0-2-0.9-2-2c0-1.1,0.9-2,2-2h4.3c1.1,0,2,0.9,2,2C23.3,45.3,22.4,46.2,21.3,46.2z"/>
		<path class="st6" d="M21.3,54.8H17c-1.1,0-2-0.9-2-2s0.9-2,2-2h4.3c1.1,0,2,0.9,2,2S22.4,54.8,21.3,54.8z"/>
		<path class="st6" d="M40.4,35.7c0,1.1-0.9,2-2,2h-4.3c-1.1,0-2-0.9-2-2s0.9-2,2-2h4.3C39.5,33.7,40.4,34.6,40.4,35.7z"/>
	</g>
	<path class="st7" d="M40.4,35.7c0,1.1-0.9,2-2,2h-2.1v-4h2.1C39.5,33.7,40.4,34.6,40.4,35.7z"/>
	<path class="st6" d="M40.4,44.2c0,1.1-0.9,2-2,2h-4.3c-1.1,0-2-0.9-2-2c0-1.1,0.9-2,2-2h4.3C39.5,42.2,40.4,43.1,40.4,44.2z"/>
	<path class="st7" d="M38.4,46.2h-2.1v-4h2.1c1.1,0,2,0.9,2,2C40.4,45.3,39.5,46.2,38.4,46.2z"/>
	<path class="st6" d="M40.4,52.8c0,1.1-0.9,2-2,2h-4.3c-1.1,0-2-0.9-2-2s0.9-2,2-2h4.3C39.5,50.8,40.4,51.7,40.4,52.8z"/>
	<path class="st7" d="M40.4,52.8c0,1.1-0.9,2-2,2h-2.1v-4h2.1C39.5,50.8,40.4,51.7,40.4,52.8z"/>
	<path class="st7" d="M55.5,37.7h-4.3c-1.1,0-2-0.9-2-2s0.9-2,2-2h4.3c1.1,0,2,0.9,2,2S56.6,37.7,55.5,37.7z"/>
	<path class="st7" d="M55.5,46.2h-4.3c-1.1,0-2-0.9-2-2c0-1.1,0.9-2,2-2h4.3c1.1,0,2,0.9,2,2C57.5,45.3,56.6,46.2,55.5,46.2z"/>
	<path class="st7" d="M55.5,54.8h-4.3c-1.1,0-2-0.9-2-2s0.9-2,2-2h4.3c1.1,0,2,0.9,2,2S56.6,54.8,55.5,54.8z"/>
</g>
</svg>
