<?xml version="1.0" encoding="utf-8"?>
<!-- Generator: Adobe Illustrator 24.2.3, SVG Export Plug-In . SVG Version: 6.00 Build 0)  -->
<svg version="1.1" id="Layer_1" xmlns="http://www.w3.org/2000/svg" xmlns:xlink="http://www.w3.org/1999/xlink" x="0px" y="0px"
	 width="72px" height="72px" viewBox="0 0 72 72" style="enable-background:new 0 0 72 72;" xml:space="preserve">
<style type="text/css">
	.st0{fill:#243C60;}
	.st1{fill:#E8834D;}
	.st2{fill:#7383BF;}
	.st3{fill:#57D8AB;}
	.st4{fill:#D75A4A;}
	.st5{fill:#EBBA16;}
	.st6{fill:#388CB2;}
</style>
<rect x="37.1" y="38.6" class="st0" width="2.6" height="23.2"/>
<rect x="38.3" y="18.6" transform="matrix(0.7071 -0.7071 0.7071 0.7071 1.1218 42.5445)" class="st0" width="27.3" height="2.6"/>
<rect x="4.8" y="47.6" transform="matrix(0.7071 -0.7071 0.7071 0.7071 -27.8217 30.5559)" class="st0" width="36.4" height="2.6"/>
<rect x="24.9" y="11.2" transform="matrix(0.7071 -0.7071 0.7071 0.7071 -7.3237 24.7294)" class="st0" width="2.6" height="20"/>
<rect x="49.3" y="32" transform="matrix(0.7071 -0.7071 0.7071 0.7071 -17.447 49.1697)" class="st0" width="2.6" height="27.3"/>
<circle class="st1" cx="64.1" cy="9" r="6.4"/>
<circle class="st2" cx="38.4" cy="64.3" r="6.4"/>
<circle class="st3" cx="8.8" cy="61.7" r="6.4"/>
<circle class="st4" cx="17.8" cy="12.8" r="3.9"/>
<circle class="st5" cx="59" cy="54" r="3.9"/>
<circle class="st6" cx="38.4" cy="33.4" r="9"/>
</svg>
