<?xml version="1.0" encoding="utf-8"?>
<!-- Generator: Adobe Illustrator 24.2.3, SVG Export Plug-In . SVG Version: 6.00 Build 0)  -->
<svg version="1.1" id="Layer_1" xmlns="http://www.w3.org/2000/svg" xmlns:xlink="http://www.w3.org/1999/xlink" x="0px" y="0px"
	 width="72px" height="72px" viewBox="0 0 72 72" style="enable-background:new 0 0 72 72;" xml:space="preserve">
<style type="text/css">
	.st0{fill:#F3F3F3;}
	.st1{fill:#5885C4;}
	.st2{fill:#243C60;}
	.st3{opacity:0.5;fill:#ABABAB;enable-background:new    ;}
	.st4{fill:#E6E6E5;}
</style>
<path class="st0" d="M57.3,2.3H12.7c-3.1,0-5.6,2.5-5.6,5.6v44.6l16.7,16.7h33.5c3.1,0,5.6-2.5,5.6-5.6V7.9
	C62.9,4.8,60.4,2.3,57.3,2.3z"/>
<g>
	<rect x="29.4" y="19" class="st1" width="22.3" height="5.6"/>
	<rect x="29.4" y="30.2" class="st1" width="22.3" height="5.6"/>
	<rect x="29.4" y="41.3" class="st1" width="22.3" height="5.6"/>
</g>
<g>
	<circle class="st2" cx="21.1" cy="21.8" r="2.8"/>
	<circle class="st2" cx="21.1" cy="32.9" r="2.8"/>
	<circle class="st2" cx="21.1" cy="44.1" r="2.8"/>
</g>
<polygon class="st3" points="37.3,69.2 22.5,54.3 22.5,67.8 23.9,69.2 "/>
<path class="st4" d="M18.3,52.5H7.1l16.7,16.7V58C23.9,55,21.4,52.5,18.3,52.5z"/>
</svg>
