<?xml version="1.0" encoding="utf-8"?>
<!-- Generator: Adobe Illustrator 24.2.3, SVG Export Plug-In . SVG Version: 6.00 Build 0)  -->
<svg version="1.1" id="Layer_1" xmlns="http://www.w3.org/2000/svg" xmlns:xlink="http://www.w3.org/1999/xlink" x="0px" y="0px"
	 width="72px" height="72px" viewBox="0 0 72 72" style="enable-background:new 0 0 72 72;" xml:space="preserve">
<style type="text/css">
	.st0{fill:#E8834D;}
	.st1{fill:#D66E41;}
	.st2{fill:#1E375E;}
	.st3{fill:#182E4F;}
	.st4{fill:#243C60;}
	.st5{fill:#243B5E;}
	.st6{fill:#FFE27A;}
	.st7{fill:#F9CF58;}
</style>
<g>
	<g>
		<path class="st0" d="M47.2,8.1c-0.1-0.1-1.1-0.9-3-1.6c-2.4-1-5.1-1.5-7.9-1.5s-5.5,0.5-7.9,1.5c-1.8,0.7-2.9,1.5-3,1.6
			c-0.6,0.4-0.9,1.1-0.9,1.8v3.6l2.3,1.2l2.3-1.2v-2.3c1.2-0.6,3.7-1.6,7.2-1.6c3.5,0,6,1,7.2,1.6v2.3l2.3,1.2l2.3-1.2V9.9
			C48.1,9.1,47.7,8.5,47.2,8.1L47.2,8.1z"/>
		<g>
			<path class="st1" d="M24.5,13.4v2.5l2.3,1.2l2.3-1.2v-2.5H24.5z"/>
			<path class="st1" d="M48.1,13.4h-4.5v2.5l2.3,1.2l2.3-1.2V13.4z"/>
		</g>
		<path class="st2" d="M3.7,40.8v20.1c0,2.4,1.9,4.3,4.3,4.3h56.6c2.4,0,4.3-1.9,4.3-4.3V40.8H3.7z"/>
		<path class="st3" d="M3.7,38.3v2.5c3.6,2.9,13.1,8.4,32.6,8.4s29.1-5.5,32.6-8.4v-2.5L3.7,38.3L3.7,38.3z"/>
		<path class="st4" d="M3.5,36.9c3.4,2.8,12.9,8.5,32.8,8.5s29.4-5.7,32.8-8.5c1-0.8,1.6-3.3,1.6-4.6V20.2c0-2.4-1.9-4.3-4.3-4.3
			H6.2c-2.4,0-4.3,1.9-4.3,4.3v12.1C1.9,33.6,2.5,36,3.5,36.9z"/>
		<path class="st5" d="M69.1,35.6c-3.4,2.8-12.9,8.5-32.8,8.5S6.9,38.4,3.5,35.6c-1-0.8-1.6-2.1-1.6-3.4v2.5c0,1.3,0.6,2.5,1.6,3.4
			c3.4,2.8,12.9,8.5,32.8,8.5s29.4-5.7,32.8-8.5c1-0.8,1.6-2.1,1.6-3.4v-2.5C70.7,33.6,70.1,34.8,69.1,35.6z"/>
		<path class="st6" d="M36.3,50.8c2.2,0,4-1.7,4-5.3v-2.5c0-0.8-0.6-1.4-1.4-1.4h-5.2c-0.8,0-1.4,0.6-1.4,1.4v2.5
			C32.3,49.2,34.1,50.8,36.3,50.8z"/>
		<path class="st7" d="M36.3,49.6c-2.2,0-4-1.8-4-4v2.5c0,2.2,1.8,4,4,4s4-1.8,4-4v-2.5C40.4,47.8,38.5,49.6,36.3,49.6L36.3,49.6z"
			/>
	</g>
</g>
</svg>
