<?xml version="1.0" encoding="utf-8"?>
<!-- Generator: Adobe Illustrator 24.2.3, SVG Export Plug-In . SVG Version: 6.00 Build 0)  -->
<svg version="1.1" id="Layer_1" xmlns="http://www.w3.org/2000/svg" xmlns:xlink="http://www.w3.org/1999/xlink" x="0px" y="0px"
	 width="72px" height="72px" viewBox="0 0 72 72" style="enable-background:new 0 0 72 72;" xml:space="preserve">
<style type="text/css">
	.st0{fill:#1E375E;}
	.st1{fill:#6FC8F1;}
	.st2{fill:#5FBFE0;}
	.st3{fill:#A0C6E9;}
	.st4{fill:#233B60;}
</style>
<rect x="15.8" y="13" transform="matrix(0.1071 -0.9942 0.9942 0.1071 5.6278 75.6277)" class="st0" width="58.1" height="43.3"/>
<rect x="5.2" y="2.5" transform="matrix(0.9975 -7.010280e-02 7.010280e-02 0.9975 -2.1466 1.9635)" class="st1" width="43.3" height="58.1"/>
<polygon class="st2" points="36.4,60 50.6,59 46.5,1 36.4,1.8 "/>
<path class="st3" d="M15.3,69.9h39.3V12.5H15.3V69.9z"/>
<rect x="36.4" y="12.5" class="st1" width="18.2" height="57.4"/>
<g>
	<rect x="21.7" y="41.4" class="st4" width="26.3" height="4"/>
	<rect x="21.7" y="48.6" class="st4" width="26.3" height="4"/>
	<rect x="21.7" y="55.8" class="st4" width="26.3" height="4"/>
</g>
<g>
	<rect x="36.4" y="41.4" class="st0" width="11.7" height="4"/>
	<rect x="36.4" y="55.8" class="st0" width="11.7" height="4"/>
	<rect x="36.4" y="48.6" class="st0" width="11.7" height="4"/>
</g>
<g>
	<path class="st4" d="M21.3,29.8c0-3.9,3-6.7,7.1-6.7c2.5,0,4.5,0.9,5.7,2.5l-2.7,2.4c-0.7-0.9-1.6-1.5-2.8-1.5c-1.8,0-3,1.2-3,3.2
		s1.2,3.2,3,3.2c1.1,0,2-0.5,2.8-1.5l2.7,2.4c-1.3,1.6-3.2,2.5-5.7,2.5C24.3,36.4,21.3,33.7,21.3,29.8z"/>
	<path class="st4" d="M49,23.4l-5.4,12.7h-4.2L34,23.4h4.6l3,7.4l3.1-7.4H49z"/>
</g>
<polygon class="st0" points="44.7,23.4 41.6,30.8 38.6,23.4 36.4,23.4 36.4,29 39.4,36.1 43.6,36.1 49,23.4 "/>
</svg>
