<?xml version="1.0" encoding="utf-8"?>
<!-- Generator: Adobe Illustrator 24.2.3, SVG Export Plug-In . SVG Version: 6.00 Build 0)  -->
<svg version="1.1" id="Layer_1" xmlns="http://www.w3.org/2000/svg" xmlns:xlink="http://www.w3.org/1999/xlink" x="0px" y="0px"
	 width="72px" height="72px" viewBox="0 0 72 72" style="enable-background:new 0 0 72 72;" xml:space="preserve">
<style type="text/css">
	.st0{fill:#243C60;}
</style>
<g>
	<g>
		<path class="st0" d="M28.1,49.4c-0.9-0.6-2-0.5-2.7,0.4c-3.2,4.2-8.1,6.7-13.4,6.7H6.7c-1.1,0-1.9,0.9-1.9,1.9
			c0,1.1,0.9,1.9,1.9,1.9H12c3.3,0,6.4-0.8,9.3-2.2c2.8-1.4,5.2-3.5,7.1-6C29.1,51.2,29,50,28.1,49.4z"/>
		<path class="st0" d="M33.5,22.4c0.4,0.3,0.8,0.4,1.2,0.4c0.6,0,1.1-0.3,1.5-0.7c3.2-4.1,8-6.5,13.2-6.5h11.2l-6,6
			c-0.8,0.8-0.8,2,0,2.7c0.4,0.4,0.9,0.6,1.4,0.6s1-0.2,1.4-0.6l9.2-9.2c0.8-0.8,0.8-2,0-2.7L57.4,3c-0.8-0.8-2-0.8-2.7,0
			c-0.8,0.8-0.8,2,0,2.7l6,6H49.4c-6.4,0-12.3,2.9-16.3,8C32.5,20.5,32.7,21.7,33.5,22.4z"/>
		<path class="st0" d="M57.4,47.8c-0.8-0.8-2-0.8-2.7,0c-0.8,0.8-0.8,2,0,2.7l6,6H49.5c-9.2,0-16.7-7.5-16.7-16.7v-7.4
			c0-11.4-9.2-20.6-20.6-20.6H6.8c-1.1,0-1.9,0.9-1.9,1.9s0.9,1.9,1.9,1.9h5.3c9.2,0,16.7,7.5,16.7,16.7v7.4
			c0,11.4,9.2,20.6,20.6,20.6h11.2l-6,6c-0.8,0.8-0.8,2,0,2.7c0.4,0.4,0.9,0.6,1.4,0.6s1-0.2,1.4-0.6l9.2-9.2c0.8-0.8,0.8-2,0-2.7
			L57.4,47.8z"/>
	</g>
</g>
</svg>
